<svg width="500" height="512" viewBox="0 0 1920 512" fill="none" xmlns="http://www.w3.org/2000/svg">
<path d="M239.44 47.9998C131.253 46.4198 42.9309 141.92 44.3921 258.9C45.8349 371.09 130.319 462.44 234.076 464C342.282 465.6 430.585 370.1 429.105 253.12C427.681 140.91 343.197 49.5598 239.44 47.9998ZM396.754 239.92L310.671 239.82C310.25 239.819 309.842 239.663 309.514 239.378C309.186 239.092 308.958 238.694 308.867 238.25C305.188 220.884 296.258 205.341 283.49 194.08C283.165 193.795 282.939 193.4 282.848 192.959C282.757 192.518 282.807 192.056 282.99 191.65L321.205 108.22C321.319 107.967 321.481 107.743 321.681 107.562C321.881 107.382 322.114 107.249 322.364 107.173C322.615 107.096 322.877 107.078 323.135 107.119C323.393 107.16 323.639 107.259 323.859 107.41C344.592 121.636 362.084 140.745 375.027 163.308C387.97 185.871 396.03 211.305 398.604 237.71C398.631 237.99 398.604 238.272 398.523 238.54C398.443 238.807 398.311 239.053 398.136 239.262C397.962 239.47 397.748 239.637 397.51 239.75C397.272 239.864 397.015 239.921 396.754 239.92ZM192.551 260.38C191.718 250.554 193.706 240.689 198.245 232.128C202.783 223.568 209.652 216.727 217.914 212.539C226.177 208.351 235.433 207.017 244.421 208.721C253.41 210.424 261.695 215.082 268.148 222.059C274.6 229.036 278.908 237.994 280.483 247.713C282.059 257.433 280.826 267.441 276.952 276.375C273.078 285.309 266.752 292.736 258.835 297.643C250.918 302.55 241.795 304.7 232.707 303.8C222.376 302.776 212.703 297.873 205.368 289.941C198.032 282.009 193.497 271.55 192.551 260.38ZM152.274 108.22L190.516 191.65C190.699 192.056 190.749 192.518 190.659 192.959C190.568 193.4 190.342 193.795 190.017 194.08C177.242 205.338 168.305 220.881 164.621 238.25C164.529 238.703 164.294 239.107 163.956 239.394C163.619 239.68 163.2 239.831 162.771 239.82L76.6874 239.92C76.4272 239.921 76.1697 239.864 75.9316 239.75C75.6936 239.637 75.4803 239.47 75.3057 239.262C75.1312 239.053 74.9992 238.807 74.9186 238.54C74.838 238.272 74.8104 237.99 74.8377 237.71C77.4121 211.305 85.472 185.871 98.4151 163.308C111.358 140.745 128.85 121.636 149.583 107.41C149.804 107.252 150.054 107.147 150.315 107.102C150.577 107.058 150.844 107.074 151.099 107.151C151.355 107.228 151.592 107.363 151.794 107.547C151.997 107.732 152.161 107.961 152.274 108.22ZM151.932 403.56L204.01 329.47C204.265 329.108 204.627 328.852 205.036 328.743C205.444 328.634 205.875 328.678 206.257 328.87C215.843 333.575 226.249 336.009 236.776 336.009C247.304 336.009 257.71 333.575 267.296 328.87C267.678 328.678 268.109 328.634 268.517 328.743C268.926 328.852 269.288 329.108 269.543 329.47L321.621 403.56C321.778 403.782 321.891 404.037 321.951 404.31C322.012 404.582 322.018 404.865 321.971 405.14C321.924 405.415 321.824 405.677 321.678 405.907C321.531 406.138 321.342 406.333 321.121 406.48C295.703 423.172 266.534 431.999 236.795 431.999C207.056 431.999 177.887 423.172 152.468 406.48C152.245 406.337 152.052 406.144 151.902 405.915C151.752 405.686 151.648 405.425 151.598 405.149C151.547 404.874 151.551 404.59 151.608 404.316C151.666 404.042 151.776 403.784 151.932 403.56Z" fill="black"/>
<path d="M505.817 321.52C500.18 321.52 495.493 320.602 491.757 318.765C488.02 316.865 485.075 314.142 482.922 310.595C480.768 307.048 479.217 302.773 478.267 297.77C477.38 292.767 476.937 287.13 476.937 280.86L497.077 278.96C497.077 282 497.172 284.945 497.362 287.795C497.615 290.582 498.027 293.115 498.597 295.395C499.23 297.612 500.117 299.385 501.257 300.715C502.46 302.045 503.98 302.71 505.817 302.71C508.857 302.71 511.01 301.317 512.277 298.53C513.543 295.68 514.177 292.26 514.177 288.27C514.177 284.28 513.132 280.132 511.042 275.825C508.952 271.518 506.45 267.433 503.537 263.57C498.597 256.983 494.258 250.872 490.522 245.235C486.848 239.598 483.967 234.057 481.877 228.61C479.85 223.163 478.837 217.463 478.837 211.51C478.837 206.823 479.438 202.517 480.642 198.59C481.845 194.6 483.587 191.148 485.867 188.235C488.21 185.258 491.028 182.947 494.322 181.3C497.615 179.653 501.383 178.83 505.627 178.83C510.883 178.83 515.317 179.717 518.927 181.49C522.6 183.263 525.545 185.797 527.762 189.09C530.042 192.383 531.688 196.31 532.702 200.87C533.778 205.367 534.317 210.37 534.317 215.88L514.177 217.78C514.177 215.437 514.05 213.093 513.797 210.75C513.607 208.343 513.227 206.158 512.657 204.195C512.087 202.232 511.263 200.648 510.187 199.445C509.11 198.242 507.717 197.64 506.007 197.64C503.347 197.64 501.51 198.78 500.497 201.06C499.483 203.277 498.977 206.443 498.977 210.56C498.977 215.88 500.402 221.01 503.252 225.95C506.102 230.89 509.933 236.653 514.747 243.24C520.51 251.03 525.197 258.187 528.807 264.71C532.48 271.233 534.317 278.453 534.317 286.37C534.317 291.373 533.778 296.028 532.702 300.335C531.625 304.578 529.915 308.283 527.572 311.45C525.292 314.617 522.347 317.087 518.737 318.86C515.19 320.633 510.883 321.52 505.817 321.52ZM556.906 321.52C553.739 321.52 551.079 320.507 548.926 318.48C546.773 316.453 545.158 313.888 544.081 310.785C543.004 307.618 542.466 304.42 542.466 301.19V216.07H561.656V297.39C561.656 299.353 562.004 300.778 562.701 301.665C563.461 302.488 564.633 302.9 566.216 302.9C567.609 302.9 568.781 302.425 569.731 301.475C570.744 300.462 571.663 299.29 572.486 297.96V216.07H591.676V320H572.486V311.26C570.206 313.413 567.641 315.662 564.791 318.005C561.941 320.348 559.313 321.52 556.906 321.52ZM635.489 321.52C632.829 321.52 630.264 320.697 627.794 319.05C625.324 317.34 622.822 315.377 620.289 313.16V320H601.099V180.35H620.289V222.91C622.695 220.63 625.229 218.667 627.889 217.02C630.549 215.373 633.082 214.55 635.489 214.55C638.782 214.55 641.505 215.563 643.659 217.59C645.875 219.553 647.522 222.087 648.599 225.19C649.739 228.293 650.309 231.523 650.309 234.88V301.19C650.309 304.547 649.739 307.808 648.599 310.975C647.459 314.078 645.78 316.612 643.564 318.575C641.347 320.538 638.655 321.52 635.489 321.52ZM626.369 303.47C627.825 303.47 628.965 302.868 629.789 301.665C630.675 300.462 631.119 298.973 631.119 297.2V238.87C631.119 237.033 630.675 235.545 629.789 234.405C628.965 233.202 627.825 232.6 626.369 232.6C624.975 232.6 623.614 233.265 622.284 234.595C620.954 235.925 620.289 237.35 620.289 238.87V297.2C620.289 298.973 620.954 300.462 622.284 301.665C623.614 302.868 624.975 303.47 626.369 303.47ZM683.694 321.52C679.197 321.52 675.271 320.76 671.914 319.24C668.557 317.72 665.771 315.567 663.554 312.78C661.337 309.93 659.659 306.573 658.519 302.71C657.442 298.847 656.904 294.54 656.904 289.79H674.764C674.764 294.033 675.429 297.738 676.759 300.905C678.152 304.008 680.464 305.56 683.694 305.56C686.481 305.56 688.286 304.388 689.109 302.045C689.932 299.702 690.344 297.01 690.344 293.97C690.344 290.423 688.951 286.813 686.164 283.14C683.441 279.403 680.591 276.078 677.614 273.165C672.484 268.098 668.209 263.095 664.789 258.155C661.432 253.215 659.754 247.42 659.754 240.77C659.754 232.917 661.812 226.583 665.929 221.77C670.046 216.957 675.904 214.55 683.504 214.55C688.064 214.55 691.896 215.152 694.999 216.355C698.166 217.558 700.699 219.363 702.599 221.77C704.499 224.177 705.861 227.122 706.684 230.605C707.571 234.088 708.014 238.11 708.014 242.67H690.154C690.154 239.377 689.806 236.527 689.109 234.12C688.412 231.713 686.671 230.51 683.884 230.51C681.604 230.51 679.989 231.492 679.039 233.455C678.089 235.355 677.614 237.793 677.614 240.77C677.614 244.253 678.437 247.357 680.084 250.08C681.794 252.74 684.612 256.002 688.539 259.865C693.479 264.678 697.976 269.808 702.029 275.255C706.146 280.702 708.204 286.623 708.204 293.02C708.204 297.2 707.634 301.032 706.494 304.515C705.417 307.998 703.802 311.007 701.649 313.54C699.559 316.073 696.994 318.037 693.954 319.43C690.977 320.823 687.557 321.52 683.694 321.52ZM743.697 321.52C737.68 321.52 733.088 320.19 729.922 317.53C726.755 314.87 724.57 311.07 723.367 306.13C722.227 301.19 721.657 295.3 721.657 288.46V233.36H711.967V216.07H721.657V190.42H740.847V216.07H754.052V233.36H740.847V291.215C740.847 295.268 741.448 298.277 742.652 300.24C743.855 302.14 745.818 303.09 748.542 303.09C749.745 303.09 750.79 302.995 751.677 302.805C752.627 302.615 753.387 302.393 753.957 302.14V319.715C752.69 320.222 751.297 320.633 749.777 320.95C748.32 321.33 746.293 321.52 743.697 321.52ZM774.656 321.52C770.223 321.52 766.391 319.272 763.161 314.775C759.931 310.278 758.316 303.407 758.316 294.16C758.316 285.23 760.216 278.042 764.016 272.595C767.88 267.148 773.643 262.43 781.306 258.44C783.713 257.173 785.74 256.033 787.386 255.02C789.033 254.007 790.046 253.057 790.426 252.17V240.77C790.426 238.173 790.11 235.957 789.476 234.12C788.906 232.22 787.45 231.27 785.106 231.27C782.953 231.27 781.496 232.283 780.736 234.31C779.976 236.273 779.596 238.743 779.596 241.72V246.66H760.406V242.29C760.406 236.59 761.515 231.682 763.731 227.565C766.011 223.385 769.083 220.187 772.946 217.97C776.873 215.69 781.306 214.55 786.246 214.55C790.996 214.55 795.113 215.658 798.596 217.875C802.08 220.028 804.771 223.037 806.671 226.9C808.635 230.7 809.616 235.07 809.616 240.01V301.95C809.616 306.573 809.743 310.183 809.996 312.78C810.25 315.313 810.566 317.72 810.946 320H792.136C791.313 318.987 790.806 317.498 790.616 315.535C790.49 313.572 790.426 312.273 790.426 311.64H789.096C787.513 314.553 785.486 316.928 783.016 318.765C780.61 320.602 777.823 321.52 774.656 321.52ZM782.446 302.71C784.663 302.71 786.531 301.95 788.051 300.43C789.635 298.91 790.426 297.263 790.426 295.49V270.79C785.803 272.753 782.415 275.73 780.261 279.72C778.171 283.647 777.126 288.08 777.126 293.02C777.126 295.173 777.538 297.327 778.361 299.48C779.185 301.633 780.546 302.71 782.446 302.71ZM820.415 320V216.07H839.605V224.81C841.885 222.593 844.45 220.345 847.3 218.065C850.15 215.722 852.778 214.55 855.185 214.55C858.352 214.55 861.012 215.563 863.165 217.59C865.318 219.617 866.933 222.182 868.01 225.285C869.087 228.388 869.625 231.587 869.625 234.88V320H850.435V238.68C850.435 236.653 850.087 235.228 849.39 234.405C848.693 233.582 847.522 233.17 845.875 233.17C844.482 233.17 843.278 233.677 842.265 234.69C841.315 235.64 840.428 236.78 839.605 238.11V320H820.415ZM902.608 321.425C894.185 321.425 887.978 318.797 883.988 313.54C880.061 308.283 878.098 300.968 878.098 291.595V244.38C878.098 234.943 880.061 227.628 883.988 222.435C887.978 217.178 894.185 214.55 902.608 214.55C911.031 214.55 917.238 217.178 921.228 222.435C925.281 227.692 927.308 235.007 927.308 244.38V252.55H908.118V241.91C908.118 238.997 907.738 236.558 906.978 234.595C906.218 232.632 904.761 231.65 902.608 231.65C900.455 231.65 899.03 232.663 898.333 234.69C897.636 236.653 897.288 239.06 897.288 241.91V294.065C897.288 296.915 897.636 299.353 898.333 301.38C899.03 303.343 900.455 304.325 902.608 304.325C904.761 304.325 906.218 303.343 906.978 301.38C907.738 299.417 908.118 296.978 908.118 294.065V283.425H927.308V291.595C927.308 300.968 925.281 308.283 921.228 313.54C917.238 318.797 911.031 321.425 902.608 321.425ZM959.575 321.52C951.912 321.52 945.864 318.892 941.43 313.635C937.06 308.315 934.875 301.823 934.875 294.16V241.91C934.875 233.803 937.06 227.217 941.43 222.15C945.8 217.083 951.912 214.55 959.765 214.55C964.895 214.55 969.297 215.722 972.97 218.065C976.707 220.408 979.557 223.607 981.52 227.66C983.484 231.65 984.465 236.21 984.465 241.34V271.55H952.735V294.16C952.735 296.757 953.305 299.163 954.445 301.38C955.649 303.533 957.422 304.61 959.765 304.61C962.235 304.61 963.977 303.597 964.99 301.57C966.067 299.543 966.605 297.073 966.605 294.16V282.76H984.465V294.73C984.465 302.773 982.28 309.265 977.91 314.205C973.604 319.082 967.492 321.52 959.575 321.52ZM952.735 256.54H966.605V241.91C966.605 239.06 966.099 236.59 965.085 234.5C964.135 232.347 962.362 231.27 959.765 231.27C957.359 231.27 955.585 232.378 954.445 234.595C953.305 236.748 952.735 239.187 952.735 241.91V256.54ZM1009.5 320V201.44H990.124V180.35H1049.4V201.44H1030.02V320H1009.5ZM1067.2 320L1051.81 216.07H1070.24L1075.37 270.41L1076.13 281.05H1077.27L1078.22 270.41L1086.2 216.07H1097.6L1105.58 270.41L1106.53 281.05H1107.67L1108.43 270.41L1113.56 216.07H1131.99L1116.6 320H1100.64L1093.23 270.41L1092.28 260.72H1091.52L1090.57 270.41L1083.16 320H1067.2ZM1139.02 320V216.07H1158.21V320H1139.02ZM1139.02 199.54V180.35H1158.21V199.54H1139.02ZM1168.69 320V216.07H1187.88V224.81C1190.16 222.593 1192.72 220.345 1195.57 218.065C1198.42 215.722 1201.05 214.55 1203.46 214.55C1206.62 214.55 1209.28 215.563 1211.44 217.59C1213.59 219.617 1215.2 222.182 1216.28 225.285C1217.36 228.388 1217.9 231.587 1217.9 234.88V320H1198.71V238.68C1198.71 236.653 1198.36 235.228 1197.66 234.405C1196.96 233.582 1195.79 233.17 1194.15 233.17C1192.75 233.17 1191.55 233.677 1190.54 234.69C1189.59 235.64 1188.7 236.78 1187.88 238.11V320H1168.69ZM1252.21 321.52C1247.71 321.52 1243.79 320.76 1240.43 319.24C1237.07 317.72 1234.29 315.567 1232.07 312.78C1229.85 309.93 1228.17 306.573 1227.03 302.71C1225.96 298.847 1225.42 294.54 1225.42 289.79H1243.28C1243.28 294.033 1243.94 297.738 1245.27 300.905C1246.67 304.008 1248.98 305.56 1252.21 305.56C1255 305.56 1256.8 304.388 1257.62 302.045C1258.45 299.702 1258.86 297.01 1258.86 293.97C1258.86 290.423 1257.47 286.813 1254.68 283.14C1251.96 279.403 1249.11 276.078 1246.13 273.165C1241 268.098 1236.72 263.095 1233.3 258.155C1229.95 253.215 1228.27 247.42 1228.27 240.77C1228.27 232.917 1230.33 226.583 1234.44 221.77C1238.56 216.957 1244.42 214.55 1252.02 214.55C1256.58 214.55 1260.41 215.152 1263.51 216.355C1266.68 217.558 1269.21 219.363 1271.11 221.77C1273.01 224.177 1274.38 227.122 1275.2 230.605C1276.09 234.088 1276.53 238.11 1276.53 242.67H1258.67C1258.67 239.377 1258.32 236.527 1257.62 234.12C1256.93 231.713 1255.19 230.51 1252.4 230.51C1250.12 230.51 1248.5 231.492 1247.55 233.455C1246.6 235.355 1246.13 237.793 1246.13 240.77C1246.13 244.253 1246.95 247.357 1248.6 250.08C1250.31 252.74 1253.13 256.002 1257.05 259.865C1261.99 264.678 1266.49 269.808 1270.54 275.255C1274.66 280.702 1276.72 286.623 1276.72 293.02C1276.72 297.2 1276.15 301.032 1275.01 304.515C1273.93 307.998 1272.32 311.007 1270.16 313.54C1268.07 316.073 1265.51 318.037 1262.47 319.43C1259.49 320.823 1256.07 321.52 1252.21 321.52ZM1341.15 321.52C1335.51 321.52 1330.83 320.602 1327.09 318.765C1323.35 316.865 1320.41 314.142 1318.25 310.595C1316.1 307.048 1314.55 302.773 1313.6 297.77C1312.71 292.767 1312.27 287.13 1312.27 280.86L1332.41 278.96C1332.41 282 1332.5 284.945 1332.69 287.795C1332.95 290.582 1333.36 293.115 1333.93 295.395C1334.56 297.612 1335.45 299.385 1336.59 300.715C1337.79 302.045 1339.31 302.71 1341.15 302.71C1344.19 302.71 1346.34 301.317 1347.61 298.53C1348.88 295.68 1349.51 292.26 1349.51 288.27C1349.51 284.28 1348.46 280.132 1346.37 275.825C1344.28 271.518 1341.78 267.433 1338.87 263.57C1333.93 256.983 1329.59 250.872 1325.85 245.235C1322.18 239.598 1319.3 234.057 1317.21 228.61C1315.18 223.163 1314.17 217.463 1314.17 211.51C1314.17 206.823 1314.77 202.517 1315.97 198.59C1317.18 194.6 1318.92 191.148 1321.2 188.235C1323.54 185.258 1326.36 182.947 1329.65 181.3C1332.95 179.653 1336.72 178.83 1340.96 178.83C1346.22 178.83 1350.65 179.717 1354.26 181.49C1357.93 183.263 1360.88 185.797 1363.09 189.09C1365.37 192.383 1367.02 196.31 1368.03 200.87C1369.11 205.367 1369.65 210.37 1369.65 215.88L1349.51 217.78C1349.51 215.437 1349.38 213.093 1349.13 210.75C1348.94 208.343 1348.56 206.158 1347.99 204.195C1347.42 202.232 1346.6 200.648 1345.52 199.445C1344.44 198.242 1343.05 197.64 1341.34 197.64C1338.68 197.64 1336.84 198.78 1335.83 201.06C1334.82 203.277 1334.31 206.443 1334.31 210.56C1334.31 215.88 1335.73 221.01 1338.58 225.95C1341.43 230.89 1345.27 236.653 1350.08 243.24C1355.84 251.03 1360.53 258.187 1364.14 264.71C1367.81 271.233 1369.65 278.453 1369.65 286.37C1369.65 291.373 1369.11 296.028 1368.03 300.335C1366.96 304.578 1365.25 308.283 1362.9 311.45C1360.62 314.617 1357.68 317.087 1354.07 318.86C1350.52 320.633 1346.22 321.52 1341.15 321.52ZM1392.24 321.52C1389.07 321.52 1386.41 320.507 1384.26 318.48C1382.1 316.453 1380.49 313.888 1379.41 310.785C1378.34 307.618 1377.8 304.42 1377.8 301.19V216.07H1396.99V297.39C1396.99 299.353 1397.34 300.778 1398.03 301.665C1398.79 302.488 1399.96 302.9 1401.55 302.9C1402.94 302.9 1404.11 302.425 1405.06 301.475C1406.08 300.462 1406.99 299.29 1407.82 297.96V216.07H1427.01V320H1407.82V311.26C1405.54 313.413 1402.97 315.662 1400.12 318.005C1397.27 320.348 1394.64 321.52 1392.24 321.52ZM1436.43 355.72V216.07H1455.62V222.91C1458.03 220.63 1460.56 218.667 1463.22 217.02C1465.88 215.373 1468.41 214.55 1470.82 214.55C1474.11 214.55 1476.84 215.563 1478.99 217.59C1481.21 219.553 1482.85 222.087 1483.93 225.19C1485.07 228.293 1485.64 231.523 1485.64 234.88V301.19C1485.64 304.547 1485.07 307.808 1483.93 310.975C1482.79 314.078 1481.11 316.612 1478.9 318.575C1476.68 320.538 1473.99 321.52 1470.82 321.52C1468.16 321.52 1465.56 320.697 1463.03 319.05C1460.5 317.34 1458.03 315.377 1455.62 313.16V355.72H1436.43ZM1462.27 303.47C1463.73 303.47 1464.77 303.027 1465.41 302.14C1466.1 301.253 1466.45 299.923 1466.45 298.15V239.82C1466.45 237.413 1466.1 235.608 1465.41 234.405C1464.77 233.202 1463.73 232.6 1462.27 232.6C1460.88 232.6 1459.42 233.202 1457.9 234.405C1456.38 235.545 1455.62 237.033 1455.62 238.87V297.2C1455.62 298.72 1456.38 300.145 1457.9 301.475C1459.42 302.805 1460.88 303.47 1462.27 303.47ZM1495.09 320V180.35H1514.28V320H1495.09ZM1548.13 321.52C1540.47 321.52 1534.42 318.892 1529.99 313.635C1525.62 308.315 1523.43 301.823 1523.43 294.16V241.91C1523.43 233.803 1525.62 227.217 1529.99 222.15C1534.36 217.083 1540.47 214.55 1548.32 214.55C1553.45 214.55 1557.85 215.722 1561.53 218.065C1565.26 220.408 1568.11 223.607 1570.08 227.66C1572.04 231.65 1573.02 236.21 1573.02 241.34V271.55H1541.29V294.16C1541.29 296.757 1541.86 299.163 1543 301.38C1544.2 303.533 1545.98 304.61 1548.32 304.61C1550.79 304.61 1552.53 303.597 1553.55 301.57C1554.62 299.543 1555.16 297.073 1555.16 294.16V282.76H1573.02V294.73C1573.02 302.773 1570.84 309.265 1566.47 314.205C1562.16 319.082 1556.05 321.52 1548.13 321.52ZM1541.29 256.54H1555.16V241.91C1555.16 239.06 1554.65 236.59 1553.64 234.5C1552.69 232.347 1550.92 231.27 1548.32 231.27C1545.91 231.27 1544.14 232.378 1543 234.595C1541.86 236.748 1541.29 239.187 1541.29 241.91V256.54ZM1581.16 320V216.07H1600.35V224.81C1603.45 221.96 1606.27 219.553 1608.8 217.59C1611.4 215.563 1613.9 214.55 1616.31 214.55C1619.73 214.55 1622.48 215.722 1624.57 218.065C1626.66 220.408 1628.21 223.1 1629.23 226.14C1631.95 223.353 1634.77 220.725 1637.68 218.255C1640.66 215.785 1643.67 214.55 1646.71 214.55C1649.87 214.55 1652.53 215.563 1654.69 217.59C1656.84 219.617 1658.46 222.182 1659.53 225.285C1660.61 228.388 1661.15 231.587 1661.15 234.88V320H1643.1V238.68C1643.1 236.653 1642.59 235.228 1641.58 234.405C1640.63 233.582 1639.42 233.17 1637.97 233.17C1636.51 233.17 1635.12 233.74 1633.79 234.88C1632.46 235.957 1631.44 237.033 1630.75 238.11V320H1612.7V238.68C1612.7 236.653 1612.19 235.228 1611.18 234.405C1610.23 233.582 1609.02 233.17 1607.57 233.17C1606.11 233.17 1604.72 233.74 1603.39 234.88C1602.06 235.957 1601.04 237.033 1600.35 238.11V320H1581.16ZM1694.34 321.52C1686.68 321.52 1680.63 318.892 1676.2 313.635C1671.83 308.315 1669.64 301.823 1669.64 294.16V241.91C1669.64 233.803 1671.83 227.217 1676.2 222.15C1680.57 217.083 1686.68 214.55 1694.53 214.55C1699.66 214.55 1704.06 215.722 1707.74 218.065C1711.47 220.408 1714.32 223.607 1716.29 227.66C1718.25 231.65 1719.23 236.21 1719.23 241.34V271.55H1687.5V294.16C1687.5 296.757 1688.07 299.163 1689.21 301.38C1690.41 303.533 1692.19 304.61 1694.53 304.61C1697 304.61 1698.74 303.597 1699.76 301.57C1700.83 299.543 1701.37 297.073 1701.37 294.16V282.76H1719.23V294.73C1719.23 302.773 1717.05 309.265 1712.68 314.205C1708.37 319.082 1702.26 321.52 1694.34 321.52ZM1687.5 256.54H1701.37V241.91C1701.37 239.06 1700.86 236.59 1699.85 234.5C1698.9 232.347 1697.13 231.27 1694.53 231.27C1692.12 231.27 1690.35 232.378 1689.21 234.595C1688.07 236.748 1687.5 239.187 1687.5 241.91V256.54ZM1727.37 320V216.07H1746.56V224.81C1748.84 222.593 1751.4 220.345 1754.25 218.065C1757.1 215.722 1759.73 214.55 1762.14 214.55C1765.3 214.55 1767.96 215.563 1770.12 217.59C1772.27 219.617 1773.89 222.182 1774.96 225.285C1776.04 228.388 1776.58 231.587 1776.58 234.88V320H1757.39V238.68C1757.39 236.653 1757.04 235.228 1756.34 234.405C1755.65 233.582 1754.47 233.17 1752.83 233.17C1751.43 233.17 1750.23 233.677 1749.22 234.69C1748.27 235.64 1747.38 236.78 1746.56 238.11V320H1727.37ZM1812.82 321.52C1806.8 321.52 1802.21 320.19 1799.04 317.53C1795.88 314.87 1793.69 311.07 1792.49 306.13C1791.35 301.19 1790.78 295.3 1790.78 288.46V233.36H1781.09V216.07H1790.78V190.42H1809.97V216.07H1823.17V233.36H1809.97V291.215C1809.97 295.268 1810.57 298.277 1811.77 300.24C1812.98 302.14 1814.94 303.09 1817.66 303.09C1818.87 303.09 1819.91 302.995 1820.8 302.805C1821.75 302.615 1822.51 302.393 1823.08 302.14V319.715C1821.81 320.222 1820.42 320.633 1818.9 320.95C1817.44 321.33 1815.41 321.52 1812.82 321.52ZM1853.75 321.52C1849.26 321.52 1845.33 320.76 1841.97 319.24C1838.62 317.72 1835.83 315.567 1833.61 312.78C1831.4 309.93 1829.72 306.573 1828.58 302.71C1827.5 298.847 1826.96 294.54 1826.96 289.79H1844.82C1844.82 294.033 1845.49 297.738 1846.82 300.905C1848.21 304.008 1850.52 305.56 1853.75 305.56C1856.54 305.56 1858.34 304.388 1859.17 302.045C1859.99 299.702 1860.4 297.01 1860.4 293.97C1860.4 290.423 1859.01 286.813 1856.22 283.14C1853.5 279.403 1850.65 276.078 1847.67 273.165C1842.54 268.098 1838.27 263.095 1834.85 258.155C1831.49 253.215 1829.81 247.42 1829.81 240.77C1829.81 232.917 1831.87 226.583 1835.99 221.77C1840.1 216.957 1845.96 214.55 1853.56 214.55C1858.12 214.55 1861.95 215.152 1865.06 216.355C1868.22 217.558 1870.76 219.363 1872.66 221.77C1874.56 224.177 1875.92 227.122 1876.74 230.605C1877.63 234.088 1878.07 238.11 1878.07 242.67H1860.21C1860.21 239.377 1859.86 236.527 1859.17 234.12C1858.47 231.713 1856.73 230.51 1853.94 230.51C1851.66 230.51 1850.05 231.492 1849.1 233.455C1848.15 235.355 1847.67 237.793 1847.67 240.77C1847.67 244.253 1848.5 247.357 1850.14 250.08C1851.85 252.74 1854.67 256.002 1858.6 259.865C1863.54 264.678 1868.03 269.808 1872.09 275.255C1876.2 280.702 1878.26 286.623 1878.26 293.02C1878.26 297.2 1877.69 301.032 1876.55 304.515C1875.48 307.998 1873.86 311.007 1871.71 313.54C1869.62 316.073 1867.05 318.037 1864.01 319.43C1861.04 320.823 1857.62 321.52 1853.75 321.52Z" fill="black"/>
</svg>
